#!OML:ASF H:\LiuWeirdWalks\Patient Classification 1\Patient 1\Session 1\male.ASF
:FULLY-SPECIFIED
:DEGREES
1322
root 2.27142 17.7639 36.3214 3.89696 -3.42039 3.93249
lowerback 2.08736 -3.93247 -9.53252
upperback -2.48217 -5.58024 1.17191
thorax -2.74763 -2.55718 6.7564
lowerneck -14.1644 0.607332 6.49297
upperneck 21.4171 0.25095 -4.33521
head 9.06576 0.15908 -2.54697
rclavicle -2.08219e-014 -2.98177e-014
rhumerus -47.5452 -8.8732 -76.0671
rradius 26.2124
rwrist -4.21275
rhand -16.9617 -1.5533
rfingers 7.12502
rthumb 9.27235 -31.3294
lclavicle -2.08219e-014 -2.98177e-014
lhumerus -29.8461 -4.55609 90.7207
lradius 32.7211
lwrist 15.1791
lhand -13.1673 -1.9642
lfingers 7.12502
lthumb 12.9319 27.6151
rfemur -31.6399 -1.07923 13.6763
rtibia 26.6685
rfoot -5.30911 -11.0024
rtoes -12.7068
lfemur 15.8139 2.29686 -25.4559
ltibia 6.21994
lfoot -6.36534 6.52078
ltoes -20.3796
1323
root 2.23398 17.7681 36.4112 3.95821 -3.56944 3.87458
lowerback 2.0959 -3.91912 -9.54748
upperback -2.48161 -5.56217 1.23973
thorax -2.7473 -2.54735 6.83678
lowerneck -14.1823 0.679599 6.58319
upperneck 21.3227 0.350447 -4.43213
head 9.0427 0.201542 -2.58231
rclavicle -3.65927e-014 -1.68967e-014
rhumerus -47.3701 -8.83348 -76.0169
rradius 25.8913
rwrist -3.90372
rhand -16.9399 -1.6008
rfingers 7.12502
rthumb 9.29329 -31.376
lclavicle -3.65927e-014 -1.68967e-014
lhumerus -29.8905 -4.03614 90.5328
lradius 32.5717
lwrist 15.1576
lhand -13.2661 -1.86551
lfingers 7.12502
lthumb 12.8366 27.7198
rfemur -31.7264 -0.890364 13.7976
rtibia 27.1388
rfoot -4.92072 -10.8841
rtoes -12.5037
lfemur 16.3443 2.20014 -25.2883
ltibia 5.63527
lfoot -5.751 6.37785
ltoes -20.9355
1324
root 2.19861 17.7725 36.5017 3.97267 -3.68391 3.81158
lowerback 2.1203 -3.97042 -9.62784
upperback -2.44509 -5.63164 1.34961
thorax -2.6919 -2.58387 6.99795
lowerneck -14.1568 0.812825 6.74737
upperneck 21.1927 0.537052 -4.60639
head 9.00534 0.282432 -2.64571
rclavicle -3.5306e-014 -1.27222e-014
rhumerus -47.1001 -8.63565 -76.0225
rradius 25.5775
rwrist -3.60886
rhand -16.9199 -1.64834
rfingers 7.12502
rthumb 9.3126 -31.4226
lclavicle -3.5306e-014 -1.27222e-014
lhumerus -29.934 -3.32759 90.2936
lradius 32.4385
lwrist 15.0872
lhand -13.3407 -1.76293
lfingers 7.12502
lthumb 12.7648 27.8269
rfemur -31.6948 -0.833983 13.9504
rtibia 27.5181
rfoot -4.51965 -10.7651
rtoes -12.3095
lfemur 16.7894 2.07517 -25.1187
ltibia 5.32495
lfoot -5.23497 6.24134
ltoes -21.5092
1325
root 2.16106 17.7776 36.5935 3.95443 -3.77056 3.68932
lowerback 2.18032 -3.76963 -9.22589
upperback -2.436 -5.35649 1.25857
thorax -2.80947 -2.45001 6.68032
lowerneck -14.2035 0.656591 6.57058
upperneck 21.1762 0.318093 -4.4284
head 8.99409 0.18447 -2.58011
rclavicle 4.79863e-014 1.11319e-014
rhumerus -47.1887 -9.17962 -75.7816
rradius 25.3663
rwrist -3.33806
rhand -16.9009 -1.64811
rfingers 7.12502
rthumb 9.33096 -31.4216
lclavicle 4.79863e-014 1.11319e-014
lhumerus -30.0493 -3.50991 90.2812
lradius 32.305
lwrist 15.1214
lhand -13.4062 -1.62172
lfingers 7.12502
lthumb 12.7016 27.972
rfemur -31.5452 -0.79626 14.1838
rtibia 27.7815
rfoot -4.08422 -10.6979
rtoes -12.1483
lfemur 17.1039 1.92639 -24.8727
ltibia 5.35238
lfoot -4.85205 6.10371
ltoes -22.0722
1326
root 2.12194 17.7833 36.6872 3.9284 -3.8158 3.60115
lowerback 2.22135 -3.62169 -8.92824
upperback -2.40321 -5.15197 1.18806
thorax -2.86475 -2.35344 6.43928
lowerneck -14.2675 0.547666 6.46273
upperneck 21.1528 0.163545 -4.32023
head 8.98834 0.114536 -2.54268
rclavicle 6.78508e-015 -1.37161e-014
rhumerus -47.2171 -9.60026 -75.6097
rradius 25.2011
rwrist -3.12737
rhand -16.8981 -1.64785
rfingers 7.12502
rthumb 9.33365 -31.4212
lclavicle 6.78508e-015 -1.37161e-014
lhumerus -30.1598 -3.60663 90.232
lradius 32.2056
lwrist 15.1206
lhand -13.4194 -1.48176
lfingers 7.12502
lthumb 12.6889 28.1128
rfemur -31.3592 -0.828457 14.4007
rtibia 28.0228
rfoot -3.63584 -10.5947
rtoes -12.1026
lfemur 17.4438 1.73256 -24.6549
ltibia 5.3415
lfoot -4.42375 5.93359
ltoes -22.6189
1327
root 2.08056 17.7896 36.7833 3.89547 -3.82942 3.51262
lowerback 2.25622 -3.43576 -8.55185
upperback -2.36157 -4.89372 1.0729
thorax -2.92355 -2.23253 6.10492
lowerneck -14.4019 0.383214 6.2815
upperneck 21.1879 -0.071305 -4.13768
head 9.01162 0.00931183 -2.4783
rclavicle -4.06732e-015 -2.72335e-014
rhumerus -47.316 -10.1485 -75.4244
rradius 25.1266
rwrist -2.98609
rhand -16.9067 -1.64091
rfingers 7.12502
rthumb 9.32533 -31.4147
lclavicle -4.06732e-015 -2.72335e-014
lhumerus -30.2758 -3.94337 90.2296
lradius 32.132
lwrist 15.169
lhand -13.414 -1.34066
lfingers 7.12502
lthumb 12.6941 28.2535
rfemur -31.1374 -0.88668 14.6352
rtibia 28.2491
rfoot -3.20652 -10.4376
rtoes -12.1325
lfemur 17.8239 1.5037 -24.4251
ltibia 5.26591
lfoot -3.9306 5.72189
ltoes -23.1742
1328
root 2.03668 17.7966 36.8818 3.90811 -3.8258 3.5609
lowerback 2.22398 -3.05956 -7.98653
upperback -2.355 -4.37546 0.752234
thorax -3.04629 -1.98452 5.4404
lowerneck -14.6185 -0.0149672 5.82365
upperneck 21.3219 -0.633311 -3.67157
head 9.06931 -0.239532 -2.31094
rclavicle 4.62827e-014 7.15625e-015
rhumerus -47.7056 -11.252 -75.0716
rradius 25.1735
rwrist -2.94396
rhand -16.9301 -1.61282
rfingers 7.12502
rthumb 9.30279 -31.3876
lclavicle 4.62827e-014 7.15625e-015
lhumerus -30.4183 -5.03559 90.4145
lradius 32.0582
lwrist 15.3129
lhand -13.4042 -1.22719
lfingers 7.12502
lthumb 12.7036 28.3664
rfemur -30.9801 -0.966598 14.7319
rtibia 28.4963
rfoot -2.81567 -10.2104
rtoes -12.2032
lfemur 18.2307 1.24256 -24.3346
ltibia 4.99994
lfoot -3.29758 5.4585
ltoes -23.7648
1329
root 1.99114 17.8042 36.9821 3.96028 -3.80669 3.71517
lowerback 2.14258 -2.86345 -7.83478
upperback -2.33376 -4.10548 0.55349
thorax -3.04237 -1.85628 5.13551
lowerneck -14.8492 -0.219817 5.58658
upperneck 21.4403 -0.926759 -3.43828
head 9.14022 -0.369883 -2.22971
rclavicle -1.74884e-014 1.25234e-014
rhumerus -47.8688 -11.8065 -74.9372
rradius 25.2571
rwrist -2.97229
rhand -16.9445 -1.59999
rfingers 7.12502
rthumb 9.28888 -31.3754
lclavicle -1.74884e-014 1.25234e-014
lhumerus -30.541 -5.62156 90.4723
lradius 32.0364
lwrist 15.458
lhand -13.4035 -1.13659
lfingers 7.12502
lthumb 12.7042 28.457
rfemur -30.8784 -1.04759 14.7175
rtibia 28.7684
rfoot -2.46962 -9.91123
rtoes -12.3047
lfemur 18.7001 0.951824 -24.3481
ltibia 4.48758
lfoot -2.50361 5.13709
ltoes -24.3683
1330
root 1.94576 17.812 37.0834 4.06368 -3.78241 4.05153
lowerback 1.9964 -2.76961 -8.02081
upperback -2.32218 -3.97812 0.38608
thorax -2.96669 -1.79382 5.05221
lowerneck -15.079 -0.316502 5.4753
upperneck 21.5512 -1.07052 -3.33355
head 9.21556 -0.433949 -2.19635
rclavicle 1.084e-015 -9.14409e-015
rhumerus -47.9129 -12.0464 -74.9377
rradius 25.3658
rwrist -3.08335
rhand -16.9818 -1.57182
rfingers 7.12502
rthumb 9.25291 -31.3488
lclavicle 1.084e-015 -9.14409e-015
lhumerus -30.6564 -5.96586 90.4687
lradius 32.0264
lwrist 15.5777
lhand -13.406 -1.10292
lfingers 7.12502
lthumb 12.7018 28.4908
rfemur -30.8683 -1.15021 14.503
rtibia 29.0822
rfoot -2.16618 -9.5329
rtoes -12.3732
lfemur 19.2694 0.637203 -24.5556
ltibia 3.61436
lfoot -1.48568 4.75733
ltoes -25.0062
1331
root 1.90315 17.8204 37.1853 4.17184 -3.71637 4.42714
lowerback 1.81235 -2.84069 -8.46559
upperback -2.30613 -4.07151 0.333667
thorax -2.80911 -1.83839 5.23578
lowerneck -15.183 -0.253141 5.5465
upperneck 21.5937 -0.984727 -3.42286
head 9.25281 -0.397821 -2.23065
rclavicle 1.90895e-014 -1.15295e-014
rhumerus -47.7879 -11.7643 -75.1361
rradius 25.4912
rwrist -3.31163
rhand -17.0306 -1.56532
rfingers 7.12502
rthumb 9.20586 -31.3444
lclavicle 1.90895e-014 -1.15295e-014
lhumerus -30.7941 -5.86545 90.3704
lradius 32.0438
lwrist 15.6364
lhand -13.4116 -1.11064
lfingers 7.12502
lthumb 12.6964 28.4834
rfemur -30.8611 -1.34225 14.25
rtibia 29.4107
rfoot -1.92531 -9.05866
rtoes -12.3381
lfemur 20.0518 0.27317 -24.8075
ltibia 2.29621
lfoot -0.222344 4.32019
ltoes -25.6671
1332
root 1.86325 17.8289 37.2868 4.29365 -3.6478 4.83209
lowerback 1.63989 -3.20206 -9.38403
upperback -2.28041 -4.55943 0.510136
thorax -2.53392 -2.07449 5.92688
lowerneck -15.2164 0.135798 5.9957
upperneck 21.5717 -0.446882 -3.89615
head 9.27536 -0.163194 -2.40488
rclavicle -5.35166e-015 -1.78906e-014
rhumerus -47.3033 -10.5876 -75.658
rradius 25.5802
rwrist -3.62576
rhand -17.0626 -1.55264
rfingers 7.12502
rthumb 9.17492 -31.333
lclavicle -5.35166e-015 -1.78906e-014
lhumerus -30.9266 -4.85097 90.0449
lradius 32.0907
lwrist 15.573
lhand -13.4152 -1.17217
lfingers 7.12502
lthumb 12.6929 28.4221
rfemur -30.8758 -1.57658 13.9684
rtibia 29.7559
rfoot -1.74462 -8.54539
rtoes -12.1916
lfemur 21.3096 -0.109637 -25.0913
ltibia -2.8625e-014
lfoot 1.52933 3.799
ltoes -26.342
1333
root 1.82276 17.8381 37.3884 4.40259 -3.59568 5.06552
lowerback 1.52103 -3.4092 -9.88933
upperback -2.28195 -4.83554 0.610652
thorax -2.37629 -2.20933 6.30715
lowerneck -15.2621 0.357959 6.24882
upperneck 21.6026 -0.139759 -4.16799
head 9.31082 -0.0293959 -2.50542
rclavicle -5.37185e-014 -1.47101e-014
rhumerus -47.0488 -9.78851 -76.0403
rradius 25.7441
rwrist -3.98636
rhand -17.078 -1.51313
rfingers 7.12502
rthumb 9.16011 -31.2942
lclavicle -5.37185e-014 -1.47101e-014
lhumerus -31.0989 -4.34635 89.8526
lradius 32.1244
lwrist 15.5072
lhand -13.4044 -1.22583
lfingers 7.12502
lthumb 12.7034 28.3678
rfemur -30.8424 -1.72301 13.8726
rtibia 30.0778
rfoot -1.62435 -8.13329
rtoes -11.9247
lfemur 21.4263 -0.443422 -25.1933
ltibia -2.22639e-014
lfoot 2.1584 3.41584
ltoes -27.0172
